<svg width="352" height="148" viewBox="0 0 352 148" fill="none" xmlns="http://www.w3.org/2000/svg">
<path d="M77.45 118.95C77.45 118.85 77.35 118.65 77.15 118.35C76.95 118.15 76.85 118 76.85 117.9C76.85 117.8 76.95 117.55 77.15 117.15C77.45 116.75 77.65 116.45 77.75 116.25C77.85 116.15 78.2 115.75 78.8 115.05C79.5 114.45 79.9 114.15 80 114.15C79.9 114.15 79.9 114.15 80 114.15C80 114.25 80.15 114.45 80.45 114.75C80.65 114.45 80.8 114.15 80.9 113.85C81 113.55 81.1 113.2 81.2 112.8C81.6 112.7 82.1 112.4 82.7 111.9C83 111.5 83.5 110.85 84.2 109.95C84.9 109.05 86.05 107.65 87.65 105.75C88.25 105.65 88.9 104.7 89.6 102.9C89.6 102.8 89.6 102.65 89.6 102.45C89.6 102.25 89.65 102 89.75 101.7C89.85 101.8 90 102.15 90.2 102.75C90.8 102.55 91.15 102.25 91.25 101.85C92.55 100.75 93.95 98.8 95.45 96C96.55 94.9 97.3 94.3 97.7 94.2C97.9 93 97.9 92.4 97.7 92.4C98 92.3 98.25 91.95 98.45 91.35C98.85 91.35 99.7 90.45 101 88.65L101.6 87.9C102.3 87.6 103.2 86.75 104.3 85.35C104.5 85.15 104.7 84.95 104.9 84.75C105.1 84.55 105.4 84.35 105.8 84.15C105.9 83.95 105.85 83.65 105.65 83.25C106.25 83.25 106.45 83.35 106.25 83.55H106.4C107 83.55 107.35 82.85 107.45 81.45C107.35 81.45 107.35 81.4 107.45 81.3V81.45C107.45 81.45 107.55 81.45 107.75 81.45C107.65 81.45 107.95 81.1 108.65 80.4C108.85 80.2 109.15 79.9 109.55 79.5C109.95 79.1 110.2 78.65 110.3 78.15V77.55C110.4 77.35 110.5 77.15 110.6 76.95C110.8 76.75 110.95 76.55 111.05 76.35C111.55 75.35 111.9 74.85 112.1 74.85C112 74.75 111.9 74.6 111.8 74.4C111.7 74.2 111.6 74 111.5 73.8C110.3 75.2 109.7 76.05 109.7 76.35C109.7 76.65 109.65 76.95 109.55 77.25C109.35 77.25 109.1 77.2 108.8 77.1C108.6 76.9 108.4 76.8 108.2 76.8C106.9 76.8 106.6 77.25 107.3 78.15L106.55 78.45C105.55 79.75 104.6 80.9 103.7 81.9C102.8 82.8 101.95 83.65 101.15 84.45L97.85 87.15C97.75 87.25 97.7 87.35 97.7 87.45C97.7 87.55 97.3 87.85 96.5 88.35C96.1 88.75 95.65 89.25 95.15 89.85C94.75 90.35 94.3 90.95 93.8 91.65L90.35 95.4C89.95 95.8 89.4 96.25 88.7 96.75C88 97.35 87.2 98.05 86.3 98.85L84.95 100.35C84.95 100.15 84.85 99.95 84.65 99.75C84.75 99.25 85.05 98.65 85.55 97.95C86.15 97.25 87.1 96.2 88.4 94.8L95.45 87L99.05 84C100.05 82.7 101.8 80.65 104.3 77.85C105.1 77.45 105.85 76.95 106.55 76.35L106.85 75.75C108.65 74.35 110.15 72.85 111.35 71.25L112.7 70.5C112.9 70.2 113.25 69.85 113.75 69.45C114.35 68.95 115.25 68.3 116.45 67.5C119.05 65 120.3 63.45 120.2 62.85C121.4 62.25 121.95 61.2 121.85 59.7L122.15 60.75C122.75 60.75 123.15 60.4 123.35 59.7C123.55 59 123.7 58.35 123.8 57.75L127.1 51.75L127.7 49.5C127.9 49.4 128.05 49.1 128.15 48.6C128.25 48.1 128.8 47.1 129.8 45.6V45.15C129.8 44.85 129.8 44.55 129.8 44.25C129.9 43.95 130 43.65 130.1 43.35C130.3 43.25 130.6 42.9 131 42.3C131.2 42.1 131.3 41.7 131.3 41.1L131 40.05V39.3C131 39.3 131.3 38.95 131.9 38.25C132.1 38.05 132.1 37.85 131.9 37.65L133.25 35.25V34.65C133.25 34.45 133.25 34.15 133.25 33.75C133.25 33.25 133.2 32.7 133.1 32.1L133.4 31.65V29.55C133.7 28.45 133.85 28.1 133.85 28.5C133.85 27.5 133.8 26.85 133.7 26.55L131.45 22.05C131.05 21.45 130.45 21.15 129.65 21.15L129.05 21.3C129.05 21.1 129.1 20.95 129.2 20.85C128.9 20.35 128.55 20.1 128.15 20.1H127.85C127.85 20.2 127.8 20.25 127.7 20.25H127.55C127.65 20.25 127.7 20.25 127.7 20.25C127.7 20.15 127.2 19.95 126.2 19.65C125.6 19.45 125.05 19.35 124.55 19.35C124.45 19.35 124.45 19.4 124.55 19.5C124.55 19.7 124.5 19.8 124.4 19.8C124.2 19.8 124.05 19.75 123.95 19.65C123.95 19.55 123.9 19.5 123.8 19.5C123.6 19.5 123.4 19.6 123.2 19.8C123.1 20 123 20.1 122.9 20.1C122.7 20.1 122.35 20.05 121.85 19.95C121.35 19.85 121 19.8 120.8 19.8L117.5 20.25L114.35 20.55C113.75 20.95 113.3 21.15 113 21.15C112.8 21.15 112.15 21.35 111.05 21.75C110.15 22.15 109.5 22.35 109.1 22.35C108.9 22.35 107.9 22.65 106.1 23.25L105.65 23.85C99.95 25.85 94.9 28.1 90.5 30.6C90.1 30.7 89.65 30.9 89.15 31.2C88.75 31.4 88.2 31.6 87.5 31.8L77.15 36.75C74.85 38.15 73.9 38.85 74.3 38.85H74C74 38.75 73.9 38.7 73.7 38.7C73.9 38.7 73.65 38.85 72.95 39.15C72.25 39.45 71.45 40.1 70.55 41.1C69.55 41.1 69 41.3 68.9 41.7C68.7 41.7 68.7 41.6 68.9 41.4C68.9 41.3 68.85 41.25 68.75 41.25C68.65 41.25 68.2 41.65 67.4 42.45C66.7 43.15 66.3 43.5 66.2 43.5C66.1 43.5 66 43.45 65.9 43.35H65.75C65.75 43.35 65.1 43.6 63.8 44.1C63.5 44.2 63.35 44.45 63.35 44.85L60.2 46.65C60.3 46.65 59.65 47.1 58.25 48L54.5 49.8L49.4 52.5C49.3 52.5 49.25 52.65 49.25 52.95C49.25 52.85 49.15 52.8 48.95 52.8C48.25 52.8 47.5 53.15 46.7 53.85C46.5 53.85 46.3 53.9 46.1 54C45.4 54.4 44.45 55 43.25 55.8C43.15 55.8 42.45 56.3 41.15 57.3C40.95 57.1 40.7 57 40.4 57C40.3 57 40.1 57.1 39.8 57.3C39.6 57.5 39.45 57.6 39.35 57.6C39.15 57.6 39.05 57.55 39.05 57.45C39.15 57.35 39.15 57.3 39.05 57.3C38.35 57.3 37.7 57.9 37.1 59.1C36.3 59.1 35.5 59.4 34.7 60C34 60.5 33.55 60.75 33.35 60.75C33.25 60.75 32.8 61.05 32 61.65C31.6 61.75 31.1 61.9 30.5 62.1C29.9 62.3 29.2 62.55 28.4 62.85C28.2 62.95 27.8 63.25 27.2 63.75C26.6 64.25 26.2 64.5 26 64.5H25.85C25.95 64.4 25.9 64.35 25.7 64.35C25.6 64.35 25.45 64.45 25.25 64.65C25.15 64.85 25.05 64.95 24.95 64.95C24.75 64.95 23.8 65.2 22.1 65.7L21.65 65.4C20.65 66.1 20.1 66.45 20 66.45C19.9 66.45 19.8 66.4 19.7 66.3C19.6 66.2 19.45 66.15 19.25 66.15C19.05 66.15 18.7 66.3 18.2 66.6C17.8 66.9 17.5 67.05 17.3 67.05H17.15C17.15 66.95 17.1 66.9 17 66.9C16.9 66.9 16.85 67 16.85 67.2C16.95 67.3 16.9 67.35 16.7 67.35C16.6 67.35 16.45 67.3 16.25 67.2C16.15 67.1 16.05 67.05 15.95 67.05C15.75 67.05 15.65 67.15 15.65 67.35C15.75 67.45 15.75 67.5 15.65 67.5C15.45 67.5 15.4 67.45 15.5 67.35H15.35C14.75 67.35 14.55 67.4 14.75 67.5L14.45 67.8C14.05 67.8 13.5 67.75 12.8 67.65C12.2 67.55 11.85 67.5 11.75 67.5C11.65 67.5 11.55 67.6 11.45 67.8C11.35 67.9 11.25 67.95 11.15 67.95C10.95 67.95 10.35 67.8 9.35 67.5C8.35 67.2 7.8 67.05 7.7 67.05C7.8 67.05 7.55 67.2 6.95 67.5L4.4 66.15C3.9 65.85 3.65 65.65 3.65 65.55V65.7H3.5C3.2 65.7 2.25 64.6 0.65 62.4V61.35C0.75 61.25 0.8 61.1 0.8 60.9C0.8 59.7 1.1 58.05 1.7 55.95C1.5 55.65 2.15 54.25 3.65 51.75C4.15 51.35 4.65 50.9 5.15 50.4C5.65 49.8 6.15 49.1 6.65 48.3C7.75 47.3 8.65 46.35 9.35 45.45C9.65 45.15 10.2 44.85 11 44.55L11.3 43.95C11.8 43.45 12.45 42.9 13.25 42.3C14.15 41.6 15.15 40.85 16.25 40.05C16.45 39.95 16.75 39.7 17.15 39.3C17.55 38.9 18.1 38.6 18.8 38.4C19.5 37.4 20.05 36.9 20.45 36.9H20.6C20.6 37 20.65 37.05 20.75 37.05C20.75 37.05 20.8 36.95 20.9 36.75C21.1 36.55 21.45 36.45 21.95 36.45L22.4 36.15C22.6 36.15 22.7 36.1 22.7 36H22.85L24.35 34.95V36L21.65 37.95L18.8 39.45L15.05 42.45C14.55 43.15 13.6 43.9 12.2 44.7C12 45.4 11.1 46.35 9.5 47.55C9.5 47.65 9.5 47.8 9.5 48C9.5 48.2 9.45 48.4 9.35 48.6C9.35 48.6 9.3 48.6 9.2 48.6C9.2 48.6 9.15 48.55 9.05 48.45C8.65 48.85 8.35 49.45 8.15 50.25C7.95 50.05 7.8 49.95 7.7 49.95C7.6 50.15 7.45 50.45 7.25 50.85C7.15 51.25 6.9 51.7 6.5 52.2L5.45 52.65V52.95C5.45 53.85 4.9 54.6 3.8 55.2C3.8 55.3 3.8 55.35 3.8 55.35C3.9 55.35 3.95 55.4 3.95 55.5C3.95 55.9 3.75 56.45 3.35 57.15C2.95 57.75 2.75 58.15 2.75 58.35C2.75 58.45 2.8 58.65 2.9 58.95C3.1 59.25 3.2 59.5 3.2 59.7C3.2 59.8 3.2 59.95 3.2 60.15C3.2 60.35 3.15 60.6 3.05 60.9C3.15 61.2 3.35 61.5 3.65 61.8C3.95 62 4.3 62.2 4.7 62.4C5.3 62.7 5.65 62.9 5.75 63C5.75 63 5.8 63 5.9 63C6 63 6.05 63.1 6.05 63.3C6.05 63.5 6.1 63.6 6.2 63.6C6.4 63.6 6.55 63.5 6.65 63.3C6.75 63 6.9 62.85 7.1 62.85C7.2 62.85 7.25 62.9 7.25 63H7.55C7.75 63 7.85 62.85 7.85 62.55C7.95 62.65 8.05 62.75 8.15 62.85C8.25 62.95 8.4 63.1 8.6 63.3H8.9C9.2 63.3 9.5 63.25 9.8 63.15C10.3 62.95 10.75 62.95 11.15 63.15L13.55 63.6C13.75 63.6 14.1 63.45 14.6 63.15C15.1 62.85 15.65 62.7 16.25 62.7H16.85C16.95 62.8 17.15 62.85 17.45 62.85L17.75 62.55C18.05 62.45 18.45 62.3 18.95 62.1C19.45 61.8 19.75 61.65 19.85 61.65C19.95 61.65 20.1 61.7 20.3 61.8C20.5 61.9 20.65 61.95 20.75 61.95C20.45 61.95 20.7 61.8 21.5 61.5C22.4 61.1 23.6 60.75 25.1 60.45C24.9 60.25 24.95 60.15 25.25 60.15H25.7C25.8 60.25 26 60.3 26.3 60.3C26.4 60.3 26.45 60.25 26.45 60.15C26.45 60.05 26.5 60 26.6 60H26.9C26.8 60.1 26.85 60.15 27.05 60.15C27.15 60.15 27.3 60.05 27.5 59.85C27.7 59.55 27.85 59.4 27.95 59.4C28.05 59.4 28.1 59.45 28.1 59.55H28.4C28.5 59.55 28.6 59.5 28.7 59.4C28.8 59.2 28.9 59.1 29 59.1H29.3C29.4 59.2 29.5 59.25 29.6 59.25C30.1 59.05 30.75 58.75 31.55 58.35C32.35 57.85 33.3 57.3 34.4 56.7C34.6 56.8 34.9 56.8 35.3 56.7C35.7 56.4 36.25 56.1 36.95 55.8C37.65 55.5 38.9 55 40.7 54.3C41.2 54 42 53.45 43.1 52.65C44.2 51.85 44.85 51.45 45.05 51.45C45.15 51.45 45.15 51.5 45.05 51.6C44.95 51.7 45 51.75 45.2 51.75C46.2 51.75 47.1 51.2 47.9 50.1C48.1 50 48.45 49.75 48.95 49.35C49.45 48.95 49.8 48.75 50 48.75C50.1 48.75 50.15 48.8 50.15 48.9C50.25 49 50.35 49.05 50.45 49.05C50.55 49.05 50.85 48.85 51.35 48.45C51.85 48.05 52.15 47.85 52.25 47.85H52.4C52.4 47.95 52.45 48 52.55 48C53.15 48 54.25 47.25 55.85 45.75C56.55 45.05 56.85 44.7 56.75 44.7C56.95 44.7 57 44.75 56.9 44.85H57.2C57.7 44.85 58.15 44.7 58.55 44.4C61.55 42.6 63 41.7 62.9 41.7H63.2C63.2 41.8 63.25 41.85 63.35 41.85C62.95 41.85 64.3 41.05 67.4 39.45C67.8 39.45 68.5 39.05 69.5 38.25C69.6 38.25 69.75 38.2 69.95 38.1C70.15 38 70.7 37.7 71.6 37.2C72.6 36.6 73.1 36.2 73.1 36H73.85C73.65 36 73.65 36.1 73.85 36.3C74.55 35.8 75.4 35.2 76.4 34.5C77.5 33.8 78.7 33.05 80 32.25H80.15C80.25 32.25 80.7 32.05 81.5 31.65L83.3 30.75C83.6 30.55 83.85 30.15 84.05 29.55L84.5 30C84.7 29.8 85.1 29.55 85.7 29.25C86.3 28.85 87.3 28.35 88.7 27.75L89.45 27C89.85 26.9 90.25 26.75 90.65 26.55C91.15 26.35 91.65 26.15 92.15 25.95L94.85 23.85C95.35 23.75 96 23.5 96.8 23.1C97.7 22.7 99 22.05 100.7 21.15C101.1 21.15 101.65 21 102.35 20.7C104.05 19.7 104.85 19.2 104.75 19.2C104.85 19.2 104.9 19.25 104.9 19.35H105.05C105.35 19.35 106.4 19 108.2 18.3C110.2 17.5 111.3 16.95 111.5 16.65C111.7 16.85 111.95 16.95 112.25 16.95C112.35 16.95 112.45 16.9 112.55 16.8C112.75 16.6 112.9 16.5 113 16.5C113.1 16.5 113.25 16.6 113.45 16.8C113.65 16.8 113.8 16.6 113.9 16.2C114 16.3 114.25 16.35 114.65 16.35C114.85 16.35 115.25 16.2 115.85 15.9C116.55 15.5 116.95 15.3 117.05 15.3H117.8C118 15.4 118.2 15.45 118.4 15.45C120 15.45 121.2 15.05 122 14.25C122.1 14.35 122.4 14.4 122.9 14.4C123 14.4 123.25 14.4 123.65 14.4C124.15 14.4 124.85 14.45 125.75 14.55C126.75 14.65 127.45 14.7 127.85 14.7C128.35 14.7 128.65 14.7 128.75 14.7C128.45 14.7 128.6 14.6 129.2 14.4C129.1 14.5 129.05 14.65 129.05 14.85C129.05 15.25 129.35 15.6 129.95 15.9C130.55 15 131.05 14.55 131.45 14.55C132.05 14.55 133.6 15.1 136.1 16.2C136.1 16.2 136.15 16.35 136.25 16.65C136.45 16.85 136.65 16.95 136.85 16.95H137C137 16.85 137.05 16.8 137.15 16.8C137.75 16.8 138.25 17.75 138.65 19.65C139.05 19.85 139.4 19.95 139.7 19.95C139.8 20.15 139.95 20.45 140.15 20.85C140.45 21.25 140.8 21.7 141.2 22.2C141.2 22.3 141.2 22.5 141.2 22.8C141.3 23 141.4 23.25 141.5 23.55C141.7 24.25 141.85 24.85 141.95 25.35C142.05 25.85 142.15 26.35 142.25 26.85V28.5C142.25 28.6 142.3 28.8 142.4 29.1C142.6 29.3 142.7 29.45 142.7 29.55C142.7 29.65 142.6 29.85 142.4 30.15C142.3 30.35 142.25 30.5 142.25 30.6C142.35 30.9 142.4 31.55 142.4 32.55L141.95 33.15C141.85 33.75 141.7 34.45 141.5 35.25C141.3 36.05 141.2 36.85 141.2 37.65C140.6 37.85 140.25 38.15 140.15 38.55C139.95 39.55 139.7 40.1 139.4 40.2C139.1 40.2 139 40.9 139.1 42.3C138.5 42.9 137.95 43.65 137.45 44.55C137.35 45.45 136.9 46.65 136.1 48.15L136.25 48.75L135.05 49.65C135.05 49.65 135.15 50.1 135.35 51C135.35 51.1 135.5 51.15 135.8 51.15C136.2 51.15 136.55 50.75 136.85 49.95C136.45 49.95 137.1 49.7 138.8 49.2C139.6 49 139.95 48.85 139.85 48.75C139.85 48.55 140.2 48.3 140.9 48C141.6 47.5 142.25 47.05 142.85 46.65C143.45 46.15 144 45.75 144.5 45.45C144.8 45.45 145.2 45.3 145.7 45C146.2 44.6 146.9 44.15 147.8 43.65L148.1 43.35L149.9 42.15C150.2 42.05 150.55 41.95 150.95 41.85C151.45 41.65 152 41.4 152.6 41.1C153.6 40.3 154.35 39.7 154.85 39.3C155.35 38.9 155.6 38.7 155.6 38.7C155.7 38.7 155.75 38.75 155.75 38.85H156.05C155.75 38.85 156.6 38.3 158.6 37.2C159.9 36.8 161.85 35.8 164.45 34.2C164.35 34.5 164.4 34.65 164.6 34.65C165.1 34.65 166.05 34.25 167.45 33.45C168.25 32.95 168.85 32.8 169.25 33C169.35 33 169.45 32.95 169.55 32.85C169.65 32.75 169.9 32.75 170.3 32.85L171.95 31.5C171.95 31.7 172.05 31.8 172.25 31.8H172.85C173.35 31.8 173.8 31.65 174.2 31.35C174.7 31.05 175.15 30.85 175.55 30.75H176C176.1 30.85 176.25 30.9 176.45 30.9H181.1C181.2 30.9 181.3 30.85 181.4 30.75C181.6 30.55 181.75 30.45 181.85 30.45C181.95 30.45 181.95 30.55 181.85 30.75C181.85 30.85 181.95 30.9 182.15 30.9L183.8 30.45C184.2 30.45 185.55 31.25 187.85 32.85L188.3 32.55L189.65 34.65C190.25 34.85 190.6 34.95 190.7 34.95V36C190.8 36.3 190.85 36.6 190.85 36.9C190.85 36.7 190.5 37.1 189.8 38.1V39.15C189.7 39.25 189.6 39.35 189.5 39.45C189.4 39.55 189.3 39.7 189.2 39.9C189.2 40.3 189.2 40.75 189.2 41.25C189.2 41.75 189.15 42.35 189.05 43.05L187.4 47.25L183.5 53.4C183.3 53.6 183 53.9 182.6 54.3C182.3 54.6 182.25 55.05 182.45 55.65C181.55 56.05 180.7 56.9 179.9 58.2L180.05 59.85L180.5 59.4C180.7 59.2 181 59 181.4 58.8C181.9 58.5 182.4 58.15 182.9 57.75C183 57.55 183.3 57.2 183.8 56.7L188.15 54C189.85 53.1 190.5 52.65 190.1 52.65H190.4C190.4 52.75 190.45 52.8 190.55 52.8C190.65 52.8 190.8 52.7 191 52.5C191.3 52.3 191.5 52.2 191.6 52.2C191.7 52.2 191.75 52.25 191.75 52.35H192.05C192.15 52.35 192.25 52.3 192.35 52.2C192.55 52.1 192.7 52.05 192.8 52.05C192.9 52.05 193.6 51.8 194.9 51.3C196.2 50.8 196.9 50.55 197 50.55C197.1 50.55 197.3 50.65 197.6 50.85C197.9 50.95 198.15 51 198.35 51C198.45 51 198.75 50.95 199.25 50.85C199.75 50.75 200.1 50.7 200.3 50.7C201.2 50.7 202.3 51.3 203.6 52.5C203.8 52.8 204.1 53.2 204.5 53.7C205 54.1 205.5 54.55 206 55.05C206.1 55.45 206.25 55.8 206.45 56.1C206.65 56.4 206.85 56.7 207.05 57L208.4 62.55C208.4 62.65 208.5 63 208.7 63.6C209 64.1 209.15 64.4 209.15 64.5C209.15 64.5 208.95 64.85 208.55 65.55L208.25 65.25L207.95 65.4L207.65 65.1C207.15 65.3 206.9 65.65 206.9 66.15C206.9 66.25 206.95 66.45 207.05 66.75C207.25 67.05 207.35 67.3 207.35 67.5V70.65C207.55 70.95 207.75 71.35 207.95 71.85C208.15 72.25 208.35 72.8 208.55 73.5C208.65 73.9 208.75 74.4 208.85 75C208.95 75.5 209.1 76.1 209.3 76.8C209.6 77.1 209.95 77.5 210.35 78C210.85 78.5 211.35 79.15 211.85 79.95C212.35 80.75 212.9 81.3 213.5 81.6H213.95C214.15 81.6 214.3 81.55 214.4 81.45C214.6 81.35 214.8 81.3 215 81.3L215.45 81.6H217.25C217.85 81.6 218.15 81.95 218.15 82.65C218.15 83.25 217.8 83.75 217.1 84.15C216.4 84.55 215.9 84.75 215.6 84.75C215.5 84.75 214.9 84.35 213.8 83.55C212.8 82.65 212.15 82.2 211.85 82.2C211.55 82.2 211.5 82.3 211.7 82.5C211.6 82.4 211.55 82.15 211.55 81.75C211.25 81.65 210.3 80.35 208.7 77.85L206.75 75.75L205.85 73.05L204.65 72C204.85 71.8 204.85 71.6 204.65 71.4C204.45 71.2 204.2 70.6 203.9 69.6L203.45 68.25L201.5 65.7L199.85 62.4C199.85 62.4 199.7 62.05 199.4 61.35C199.2 60.55 198.85 59.8 198.35 59.1C197.85 58.4 197.3 58.05 196.7 58.05C196.5 58.05 196.4 58.1 196.4 58.2H196.25C196.55 58.2 196.05 57.85 194.75 57.15C194.65 56.95 194.2 56.8 193.4 56.7L192.8 55.95L192.35 56.85L191.3 56.4C191.1 56.4 190.9 56.5 190.7 56.7C190.6 56.8 190.5 56.85 190.4 56.85C190.3 56.85 190.25 56.8 190.25 56.7H190.1C190 56.7 189.85 56.85 189.65 57.15C189.45 57.45 189.25 57.6 189.05 57.6C188.75 57.6 188.6 57.5 188.6 57.3L186.8 58.35L186.2 58.2L182.3 60.6H182C182 60.5 181.95 60.45 181.85 60.45C182.05 60.45 181 61.45 178.7 63.45C177.7 63.95 177 64.45 176.6 64.95C176 65.45 175.25 66.1 174.35 66.9C173.45 67.6 172.35 68.45 171.05 69.45C170.05 70.25 169.35 70.9 168.95 71.4C168.65 71.9 168.25 72.5 167.75 73.2C167.65 73.2 167.45 73.45 167.15 73.95C166.85 74.45 166.55 74.9 166.25 75.3C166.35 75.2 166.25 75.15 165.95 75.15C166.25 75.15 166.1 75.25 165.5 75.45L163.85 77.7C163.65 77.8 163.35 77.95 162.95 78.15C162.55 78.25 162 78.5 161.3 78.9C161 78.6 160.55 78.45 159.95 78.45L159.65 77.4C159.65 76.2 160 75.6 160.7 75.6C160.8 75.6 160.8 75.65 160.7 75.75C160.7 75.85 160.8 75.9 161 75.9L163.1 73.95L164.6 72.15C164.8 72.05 165 71.9 165.2 71.7C165.5 71.5 165.85 71.25 166.25 70.95C166.45 70.95 166.6 70.9 166.7 70.8C167.1 70.4 167.5 69.9 167.9 69.3C168.4 68.7 168.95 68 169.55 67.2C169.55 66.9 169.6 66.65 169.7 66.45C170.7 65.25 171.3 64.25 171.5 63.45L173 61.65L173.9 59.25L175.7 56.4L176.9 54C177.5 52.6 178.1 51 178.7 49.2C179.4 47.4 180.1 45.35 180.8 43.05C180.8 42.75 180.85 42.55 180.95 42.45C180.95 41.75 180.9 41.5 180.8 41.7C180.8 41.3 180.75 41 180.65 40.8C180.65 40.5 180.6 40.25 180.5 40.05V39.15C180.4 38.85 180.25 38.5 180.05 38.1C179.85 37.7 179.65 37.25 179.45 36.75C179.45 36.75 179.15 36.65 178.55 36.45C178.55 36.45 178.45 36.35 178.25 36.15C178.05 35.85 177.9 35.7 177.8 35.7H177.5C177.5 35.8 177.45 35.85 177.35 35.85C177.35 35.85 177 35.65 176.3 35.25C176.2 35.25 175.85 35.4 175.25 35.7C174.65 36 174.3 36.15 174.2 36.15C174 36.15 173.95 36.1 174.05 36H173.75C173.65 36 173.45 36.1 173.15 36.3C172.85 36.5 172.6 36.6 172.4 36.6L172.1 36L170 36.45C169.3 36.65 168.8 36.85 168.5 37.05C168.2 37.15 168 37.2 167.9 37.2C167.8 37.2 167.75 37.15 167.75 37.05H167.6C167.4 37.05 167.15 37.2 166.85 37.5L164.3 38.4C163.5 38 162.9 37.8 162.5 37.8C162.3 37.8 162 38 161.6 38.4C161.5 38.7 161.25 39 160.85 39.3C160.45 39.5 160.15 39.75 159.95 40.05C159.85 40.05 159.7 40 159.5 39.9C159.3 39.8 159.1 39.75 158.9 39.75C158.7 39.95 158.65 40.2 158.75 40.5H158.45C157.75 40.5 156.95 40.8 156.05 41.4C155.25 42 153.85 42.7 151.85 43.5C151.15 43.9 150.15 44.55 148.85 45.45C147.65 46.35 147 46.8 146.9 46.8C146.7 46.8 146.6 46.75 146.6 46.65H146.3C146.2 46.65 145.3 47.35 143.6 48.75C143.4 48.85 143.15 48.95 142.85 49.05C142.55 49.15 142.15 49.25 141.65 49.35C141.35 50.45 139.75 51.4 136.85 52.2C136.65 52.8 135.85 53.45 134.45 54.15C134.45 54.25 134.35 54.5 134.15 54.9C132.85 55.3 131.85 56 131.15 57C131.15 57.4 130.9 57.9 130.4 58.5C129.4 59.5 128.8 60.55 128.6 61.65C127.6 63.25 127.15 64 127.25 63.9C127.35 64 127.35 64.05 127.25 64.05V63.9C127.15 63.9 127 63.85 126.8 63.75L126.05 64.65C126.05 64.85 126 65.25 125.9 65.85C125.8 66.35 125.75 66.7 125.75 66.9L125.15 66.45C125.05 66.45 124.95 66.4 124.85 66.3L123.95 67.8C123.85 67.8 123.7 67.95 123.5 68.25C122.6 68.65 122.2 69.35 122.3 70.35L120.5 72C120.4 72.1 120.3 72.35 120.2 72.75C120.1 73.05 119.95 73.5 119.75 74.1C119.55 74.2 119.3 74.35 119 74.55C118.8 74.75 118.5 74.95 118.1 75.15L117.5 76.8C117.1 76.8 116.55 77.3 115.85 78.3C115.65 78.5 115.4 78.75 115.1 79.05C114.9 79.35 114.7 79.8 114.5 80.4C112.4 81.3 111.2 82.8 110.9 84.9C110.2 85 109.6 85.45 109.1 86.25C109.1 86.55 108.95 87.1 108.65 87.9C108.25 88.1 107.8 88.4 107.3 88.8C106.9 89.1 106.4 89.5 105.8 90L104.45 91.8C104.25 92 104 92.25 103.7 92.55C103.5 92.75 103.3 92.9 103.1 93C102.8 93.4 102.75 93.7 102.95 93.9C102.75 94 102.5 94.1 102.2 94.2C101.9 94.3 101.55 94.45 101.15 94.65L100.7 96.15C100.7 96.45 100.4 96.7 99.8 96.9C99.2 98.1 98.7 98.7 98.3 98.7C98.1 98.7 97.95 98.65 97.85 98.55C97.35 99.55 96.6 100.7 95.6 102C95.5 102.1 95.45 102.25 95.45 102.45C94.95 102.45 94.55 102.6 94.25 102.9C93.95 103.3 93.7 103.5 93.5 103.5H93.35C93.35 103.4 93.3 103.35 93.2 103.35C93.2 103.35 93.1 103.5 92.9 103.8C92.7 104.1 92.4 104.6 92 105.3L91.25 106.5C90.65 106.7 90.3 107 90.2 107.4C89.6 107.6 89.1 108 88.7 108.6C88.4 109.2 88.2 109.5 88.1 109.5H87.8C87.7 109.4 87.6 109.35 87.5 109.35C87.1 109.35 86.75 109.75 86.45 110.55C85.75 110.85 85.3 111.25 85.1 111.75L82.4 114C81.3 114.5 80.55 115.05 80.15 115.65V115.8C80.15 116.1 80 116.5 79.7 117C79.5 117.5 78.75 118.15 77.45 118.95ZM23.75 37.8L23.15 37.2L23.3 36.9L23.9 37.5L23.75 37.8ZM5.6 63.15H5.75C5.75 63.15 5.7 63.15 5.6 63.15ZM74.45 120.9L74.9 119.4C75.1 119.3 75.35 119.25 75.65 119.25C76.15 119.25 76.4 119.7 76.4 120.6C75.3 121 74.65 121.1 74.45 120.9ZM223.677 147.9C222.877 147.9 221.177 146.95 218.577 145.05C217.977 144.55 217.477 143.95 217.077 143.25C216.577 142.55 216.177 142.2 215.877 142.2C215.277 140.1 214.527 139.05 213.627 139.05C213.827 138.85 213.927 138.65 213.927 138.45C213.927 138.25 213.477 137.05 212.577 134.85V134.25C212.477 134.05 212.377 133.75 212.277 133.35C212.177 132.95 212.027 132.5 211.827 132C211.927 131.9 211.977 131.6 211.977 131.1C211.877 131.2 211.827 131.05 211.827 130.65C212.027 130.45 212.127 130.2 212.127 129.9L211.827 129.45C211.827 129.45 211.927 129.25 212.127 128.85C212.227 127.65 212.377 126.15 212.577 124.35C212.777 122.65 212.877 121.45 212.877 120.75V119.55C212.877 119.05 212.927 118.55 213.027 118.05C213.027 117.65 213.077 117.25 213.177 116.85L214.377 115.05C214.477 114.55 214.627 114 214.827 113.4C215.027 112.8 215.227 112.1 215.427 111.3C215.927 110.2 216.927 108.9 218.427 107.4C218.427 107.2 218.477 106.95 218.577 106.65C218.577 106.45 218.627 106.2 218.727 105.9C218.927 105.6 219.177 105.1 219.477 104.4C219.877 103.8 220.377 102.75 220.977 101.25C221.177 101.15 221.477 100.3 221.877 98.7C221.977 98.8 222.177 98.85 222.477 98.85C222.977 98.85 223.377 98.4 223.677 97.5L224.277 97.2C224.877 96.1 225.477 94.75 226.077 93.15C226.277 93.15 226.527 92.6 226.827 91.5C227.527 91 228.477 89.95 229.677 88.35L229.977 87.3C230.477 86.9 231.077 86.45 231.777 85.95C232.477 85.35 233.227 84.7 234.027 84L234.477 83.1C234.477 83 234.677 82.8 235.077 82.5C235.477 82.2 235.627 81.9 235.527 81.6C236.027 81.3 236.477 80.85 236.877 80.25H237.477L242.427 75C242.627 74.6 242.977 74 243.477 73.2C244.077 72.4 244.727 71.75 245.427 71.25C245.927 71.05 246.627 70.6 247.527 69.9C247.727 69.7 247.827 69.6 247.827 69.6H247.977C247.977 69.7 248.027 69.75 248.127 69.75C248.227 69.75 248.477 69.5 248.877 69C249.277 68.4 249.727 68 250.227 67.8L251.127 66.75C251.827 66.55 252.477 66.25 253.077 65.85L254.877 64.05L257.577 62.55C258.277 62.15 259.477 61.2 261.177 59.7C261.277 59.6 261.477 59.55 261.777 59.55C262.077 59.15 262.527 58.8 263.127 58.5C263.727 58.2 264.327 57.8 264.927 57.3C266.927 56.5 268.927 55.2 270.927 53.4C271.627 53.3 272.627 52.9 273.927 52.2L276.327 50.1L277.827 49.65L278.277 49.05C278.777 48.85 279.477 48.6 280.377 48.3C281.277 47.9 282.277 47.5 283.377 47.1C283.877 46.8 284.027 46.65 283.827 46.65C284.027 46.65 284.127 46.7 284.127 46.8H284.277C284.477 46.8 284.677 46.55 284.877 46.05C285.877 45.95 287.177 45.45 288.777 44.55C289.077 44.55 289.527 44.45 290.127 44.25C290.827 44.05 291.227 43.95 291.327 43.95C291.527 43.95 291.627 44 291.627 44.1H291.777C291.877 44.1 292.377 43.8 293.277 43.2C294.177 42.6 294.727 42.3 294.927 42.3L297.927 42.6C298.127 42.6 298.377 42.5 298.677 42.3C298.977 42 299.727 41.65 300.927 41.25L310.527 40.2L310.977 40.5H312.477L314.277 40.2C314.377 40.2 314.527 40.3 314.727 40.5C314.927 40.7 315.127 40.8 315.327 40.8C315.527 40.8 315.627 40.65 315.627 40.35C316.227 40.45 317.077 40.65 318.177 40.95C319.377 41.15 319.677 41.25 319.077 41.25C319.277 41.25 319.377 41.2 319.377 41.1H319.527C319.427 41.1 319.777 41.3 320.577 41.7C320.977 41.9 321.527 42 322.227 42C322.427 42 322.627 41.9 322.827 41.7L323.727 39.3L324.177 38.7C324.477 38.3 324.677 37.85 324.777 37.35C324.977 36.75 325.127 36.2 325.227 35.7L326.427 34.2C326.427 34 326.427 33.7 326.427 33.3C326.427 32.9 326.477 32.5 326.577 32.1L327.927 29.1C327.827 28.9 327.777 28.5 327.777 27.9C327.977 27.7 328.077 27.3 328.077 26.7C328.377 26.4 329.027 24.55 330.027 21.15L331.227 19.35C331.227 19.15 331.227 18.9 331.227 18.6C331.227 18.3 331.277 17.95 331.377 17.55C331.777 16.35 331.977 15.8 331.977 15.9V15.15C331.877 14.85 331.827 14.55 331.827 14.25C331.427 14.15 331.027 14.1 330.627 14.1C330.327 14 330.077 13.95 329.877 13.95C329.777 13.95 329.377 14.1 328.677 14.4C328.077 14.7 327.727 14.85 327.627 14.85C327.427 14.85 327.277 14.8 327.177 14.7H326.727C326.527 14.7 326.277 14.8 325.977 15C325.677 15.1 325.427 15.15 325.227 15.15C325.127 15.15 324.877 15.05 324.477 14.85C324.177 14.65 323.877 14.55 323.577 14.55C323.177 14.45 322.627 14.4 321.927 14.4C321.227 14.3 320.477 14.25 319.677 14.25C319.577 14.25 319.477 14.35 319.377 14.55C319.277 14.75 319.127 14.85 318.927 14.85L316.977 14.4C316.777 14.4 316.577 14.5 316.377 14.7C316.177 14.8 316.027 14.85 315.927 14.85C315.727 14.85 315.577 14.8 315.477 14.7H315.027C314.927 14.7 314.777 14.8 314.577 15C314.377 15.1 314.227 15.15 314.127 15.15C314.227 15.15 314.227 15.15 314.127 15.15C314.027 15.15 313.877 15.15 313.677 15.15C313.577 15.05 313.377 15 313.077 15C312.977 14.9 312.927 14.8 312.927 14.7C312.927 14.5 312.877 14.35 312.777 14.25C312.577 14.45 312.377 14.6 312.177 14.7C312.077 14.8 312.027 14.85 312.027 14.85H309.477C308.677 14.85 308.077 14.9 307.677 15C307.277 15 307.027 15 306.927 15L303.927 14.25C303.827 14.25 303.727 14.35 303.627 14.55C303.627 14.65 303.527 14.7 303.327 14.7L299.877 13.95C299.777 13.95 299.677 14 299.577 14.1H299.277C299.077 14.1 298.327 14 297.027 13.8C295.727 13.5 294.977 13.35 294.777 13.35C294.677 13.35 294.527 13.4 294.327 13.5C294.227 13.6 294.077 13.65 293.877 13.65C293.777 13.65 293.627 13.5 293.427 13.2C293.227 12.9 292.927 12.75 292.527 12.75C292.027 12.75 291.777 12.85 291.777 13.05L291.177 12.15C290.977 12.15 290.727 12.15 290.427 12.15C290.127 12.15 289.777 12.1 289.377 12C289.277 11.8 289.077 11.65 288.777 11.55C288.477 11.45 287.777 11.4 286.677 11.4C286.377 11.4 286.277 11.45 286.377 11.55C286.277 11.45 286.177 11.35 286.077 11.25C285.977 11.15 285.827 11 285.627 10.8C282.827 9.9 281.577 9.45 281.877 9.45H281.577C281.577 9.55 281.477 9.59999 281.277 9.59999C281.177 9.59999 280.077 8.69999 277.977 6.89999V6.45C277.977 6.34999 278.027 6.09999 278.127 5.69999C278.227 5.19999 278.277 4.79999 278.277 4.5C279.077 3.79999 279.427 3.3 279.327 3C279.427 3 279.577 3.05 279.777 3.15C280.077 3.25 280.327 3.3 280.527 3.3C280.627 3.3 280.777 3.25 280.977 3.15C281.277 2.94999 281.527 2.84999 281.727 2.84999L293.127 6C293.427 6 293.627 5.95 293.727 5.85C294.227 6.45 294.677 6.75 295.077 6.75C295.177 6.75 295.227 6.7 295.227 6.6C295.227 6.5 295.327 6.45 295.527 6.45C295.627 6.45 295.977 6.6 296.577 6.89999C297.177 7.1 297.527 7.25 297.627 7.35L303.777 8.39999C303.777 8.69999 303.827 8.89999 303.927 8.99999L303.027 9.45V8.7C302.427 8.49999 302.077 8.39999 301.977 8.39999C302.177 8.39999 301.727 8.54999 300.627 8.85C300.527 8.75 300.227 8.7 299.727 8.7C299.527 8.89999 299.427 9.04999 299.427 9.14999C299.427 9.25 299.627 9.5 300.027 9.9C300.527 10.2 300.927 10.3 301.227 10.2L303.327 9.9C303.427 9.9 303.577 10 303.777 10.2C304.077 10.3 304.327 10.35 304.527 10.35H304.677C304.677 10.25 304.727 10.2 304.827 10.2C305.327 10.2 306.077 10.65 307.077 11.55L307.827 12.45C308.427 12.45 308.927 12.5 309.327 12.6C309.527 12.2 309.677 11.8 309.777 11.4C309.977 11 310.327 10.8 310.827 10.8C311.027 10.8 311.477 10.95 312.177 11.25C312.977 11.55 313.427 11.7 313.527 11.7H314.277C314.577 11.6 314.877 11.55 315.177 11.55C315.877 11.55 316.277 11.6 316.377 11.7C317.177 12.2 317.677 12.45 317.877 12.45C317.977 12.45 318.177 12.4 318.477 12.3C318.777 12.2 319.027 12.15 319.227 12.15C319.827 12.15 320.177 12.3 320.277 12.6H320.727C320.827 12.2 321.127 12 321.627 12C321.827 12 322.027 12.1 322.227 12.3C322.527 12.4 322.777 12.45 322.977 12.45L332.877 11.4C333.577 9.8 333.777 8.15 333.477 6.45C333.877 5.55 334.077 4.85 334.077 4.35C334.077 4.55 333.927 4.29999 333.627 3.59999C333.527 3.39999 333.427 3.2 333.327 3C333.327 2.7 333.327 2.35 333.327 1.94999C333.327 1.54999 333.477 1.14999 333.777 0.749992H334.527C335.027 1.94999 335.427 2.64999 335.727 2.84999L335.427 3.44999L335.727 6.6C335.827 7.29999 335.877 7.95 335.877 8.55C335.977 9.05 336.027 9.55 336.027 10.05L335.727 10.8C338.027 10.5 339.327 10.35 339.627 10.35C341.427 10.35 342.827 9.89999 343.827 8.99999C343.927 9.39999 344.127 9.59999 344.427 9.59999C344.127 9.59999 345.977 9 349.977 7.8C350.277 7.7 350.827 7.64999 351.627 7.64999C351.327 7.75 350.727 8.25 349.827 9.14999C349.027 9.25 348.527 9.5 348.327 9.9C348.227 9.8 348.077 9.74999 347.877 9.74999C347.777 9.74999 347.327 9.94999 346.527 10.35C345.727 10.65 345.227 10.8 345.027 10.8C344.927 10.8 344.827 10.75 344.727 10.65H344.427C344.327 10.65 344.027 10.75 343.527 10.95C343.127 11.05 342.877 11.2 342.777 11.4C342.377 11.4 341.477 11.7 340.077 12.3C339.877 12.3 339.777 12.25 339.777 12.15H339.477C339.377 12.15 339.077 12.3 338.577 12.6C338.177 12.8 337.927 12.9 337.827 12.9H337.527C337.527 12.8 337.427 12.75 337.227 12.75C336.927 12.75 336.427 12.95 335.727 13.35C335.627 13.45 335.577 13.55 335.577 13.65C335.977 13.75 336.127 13.95 336.027 14.25V15.45C336.027 15.55 335.927 15.75 335.727 16.05C335.527 16.25 335.427 16.45 335.427 16.65C335.427 16.85 335.377 17.15 335.277 17.55C335.277 17.85 335.227 18.25 335.127 18.75C335.427 19.15 335.577 19.85 335.577 20.85C335.377 21.15 335.127 21.5 334.827 21.9C334.527 22.3 334.277 22.75 334.077 23.25C334.277 23.95 334.277 25.3 334.077 27.3C333.277 29.9 332.627 31.8 332.127 33C331.727 34.1 331.527 34.55 331.527 34.35C331.027 35.15 330.977 35.6 331.377 35.7C331.377 35.8 331.227 36.1 330.927 36.6C330.627 37 330.427 37.45 330.327 37.95C330.627 37.95 330.927 38.1 331.227 38.4C330.927 40.3 330.727 41.2 330.627 41.1C330.427 41.8 330.027 42.4 329.427 42.9C328.927 43.4 328.677 43.9 328.677 44.4C329.177 44.5 329.927 44.95 330.927 45.75L331.977 47.25C332.877 49.35 333.327 50.45 333.327 50.55C333.327 50.65 333.277 50.85 333.177 51.15L332.427 51.45C332.227 51.45 330.827 49.55 328.227 45.75L328.077 45.9C327.977 46.3 327.777 46.85 327.477 47.55C327.277 48.25 327.077 49.05 326.877 49.95C326.477 52.15 325.877 53.65 325.077 54.45C324.377 55.15 323.927 56.8 323.727 59.4C323.527 59.8 323.327 60.25 323.127 60.75C322.927 61.15 322.727 61.6 322.527 62.1C322.327 62.3 322.027 63 321.627 64.2C320.027 66.1 319.277 67.25 319.377 67.65C318.477 68.25 318.027 69.1 318.027 70.2C317.927 70.2 317.827 70.25 317.727 70.35L316.677 72.3C316.677 72.3 316.677 72.4 316.677 72.6C316.677 72.8 316.727 73.1 316.827 73.5V73.65C316.827 73.75 316.827 73.95 316.827 74.25C316.827 74.45 316.777 74.75 316.677 75.15C316.277 75.35 316.027 75.6 315.927 75.9C315.827 76.1 315.677 76.45 315.477 76.95C315.077 77.65 314.377 78.45 313.377 79.35C313.377 79.95 313.577 80.6 313.977 81.3C313.877 81.3 313.577 81.7 313.077 82.5C311.577 82.6 310.827 83.3 310.827 84.6C310.827 85 310.877 85.3 310.977 85.5H310.677C310.277 85.5 309.877 85.8 309.477 86.4C309.177 87 308.627 87.7 307.827 88.5C307.727 89 307.227 89.95 306.327 91.35C306.127 91.35 305.777 91.55 305.277 91.95C305.277 92.15 305.077 92.7 304.677 93.6C304.277 94.4 304.177 95.05 304.377 95.55C304.277 95.65 304.127 95.8 303.927 96C303.827 96.1 303.577 96.25 303.177 96.45C303.177 96.55 303.077 96.9 302.877 97.5L301.677 98.85C301.177 99.05 300.627 99.3 300.027 99.6C299.427 99.9 298.877 100.3 298.377 100.8L299.427 101.25C299.227 101.65 298.927 102.2 298.527 102.9C298.127 103.7 297.277 104.6 295.977 105.6C295.877 106 295.677 106.35 295.377 106.65C295.177 107.05 294.927 107.55 294.627 108.15C294.127 108.45 293.477 109.2 292.677 110.4C291.677 110.7 290.827 111.3 290.127 112.2C289.127 113.3 288.527 114 288.327 114.3C288.127 114.7 288.027 114.9 288.027 114.9C288.027 115 287.927 115.1 287.727 115.2C287.627 115.4 286.627 116.45 284.727 118.35C284.527 118.35 284.327 118.4 284.127 118.5C283.927 118.6 283.577 118.95 283.077 119.55C282.677 120.25 282.377 120.6 282.177 120.6C281.977 120.6 281.777 120.7 281.577 120.9C281.277 121.3 280.827 121.75 280.227 122.25C279.727 122.75 279.077 123.15 278.277 123.45C278.177 123.65 277.977 123.85 277.677 124.05C277.377 124.35 277.077 124.6 276.777 124.8C275.877 125.5 274.527 126.85 272.727 128.85C272.227 128.85 271.927 128.9 271.827 129L265.227 133.5C263.327 135.2 262.327 136.05 262.227 136.05C262.127 136.05 262.027 136 261.927 135.9C261.927 135.8 261.877 135.75 261.777 135.75C261.377 135.75 261.077 135.85 260.877 136.05C260.677 136.35 260.477 136.6 260.277 136.8C258.677 137.6 257.827 138.15 257.727 138.45C257.727 138.25 257.577 138.15 257.277 138.15C257.277 138.15 256.727 138.5 255.627 139.2C254.627 139.4 253.327 139.85 251.727 140.55C250.727 141.15 250.277 141.45 250.377 141.45C250.277 141.45 250.227 141.4 250.227 141.3H249.927C249.927 141.3 249.627 141.45 249.027 141.75C248.527 142.05 247.727 142.3 246.627 142.5L244.677 142.95C244.577 142.85 244.177 142.8 243.477 142.8C243.477 142.9 243.427 143 243.327 143.1H243.027C242.927 143.1 242.527 143.1 241.827 143.1C241.227 143.2 240.227 143.25 238.827 143.25H234.477C234.377 143.25 234.177 143.15 233.877 142.95C233.577 142.75 233.377 142.65 233.277 142.65C233.177 142.65 232.927 142.75 232.527 142.95C230.727 141.25 229.377 140.2 228.477 139.8C227.977 139.3 227.677 138.9 227.577 138.6L229.677 139.05C232.377 140.05 233.627 140.55 233.427 140.55C233.527 140.55 233.627 140.5 233.727 140.4H234.027C234.127 140.4 234.227 140.45 234.327 140.55C234.527 140.75 234.677 140.85 234.777 140.85H236.727C236.727 140.85 236.777 140.85 236.877 140.85C237.077 140.95 237.327 141.05 237.627 141.15C237.627 141.25 238.077 141.3 238.977 141.3C239.877 141.3 240.327 141.25 240.327 141.15C241.127 140.75 241.477 140.55 241.377 140.55C241.577 140.55 241.677 140.6 241.677 140.7H241.977C242.377 140.7 242.777 140.65 243.177 140.55C243.677 140.55 244.177 140.5 244.677 140.4C244.777 140.3 244.977 140.15 245.277 139.95C245.677 139.75 245.927 139.65 246.027 139.65C246.227 139.65 246.327 139.7 246.327 139.8C246.327 139.9 246.427 139.95 246.627 139.95C247.627 139.95 248.127 139.55 248.127 138.75L248.727 138.9C248.627 138.9 248.877 138.75 249.477 138.45C250.177 138.25 251.077 137.85 252.177 137.25C252.377 137.05 252.627 136.8 252.927 136.5C253.327 136.2 254.377 135.7 256.077 135L256.977 133.65H257.427C258.527 133.65 259.327 133.1 259.827 132L261.627 131.1C261.627 130.9 261.727 130.65 261.927 130.35C262.227 130.05 262.677 129.9 263.277 129.9C263.477 129.4 264.077 129 265.077 128.7C265.177 128.6 265.277 128.4 265.377 128.1C265.477 127.8 265.727 127.5 266.127 127.2C266.227 127.1 266.277 126.8 266.277 126.3L266.877 126.45C267.077 126.45 267.377 126.15 267.777 125.55C267.777 125.35 267.777 125.15 267.777 124.95C267.777 124.75 267.827 124.5 267.927 124.2C268.627 123.5 269.227 123.2 269.727 123.3L270.327 123.45L270.927 122.25C271.227 121.55 271.177 121 270.777 120.6L272.427 119.25C272.627 119.25 272.827 119.2 273.027 119.1C273.227 119.1 273.477 119.05 273.777 118.95C273.777 118.95 273.777 118.9 273.777 118.8C273.777 118.8 273.827 118.75 273.927 118.65C275.027 118.05 275.627 117.8 275.727 117.9C275.927 117.5 275.977 117.05 275.877 116.55C276.377 115.65 276.777 115.2 277.077 115.2H277.227C277.127 115.3 277.177 115.35 277.377 115.35C277.177 115.35 277.527 115.05 278.427 114.45C278.627 114.25 278.627 114.05 278.427 113.85C279.427 113.35 280.027 112.85 280.227 112.35C280.527 111.95 281.077 111.2 281.877 110.1C282.077 110.1 282.227 110.05 282.327 109.95L283.527 107.55C284.027 107.25 284.577 106.7 285.177 105.9C285.777 105.6 286.127 105.1 286.227 104.4C286.427 103.7 286.577 103.05 286.677 102.45C286.877 102.35 287.077 102.25 287.277 102.15C287.577 102.05 287.927 101.9 288.327 101.7C288.527 101.5 288.827 100.85 289.227 99.75H289.377C289.777 99.75 290.477 99.3 291.477 98.4V97.8C291.477 97.9 291.627 97.95 291.927 97.95C291.627 97.95 292.427 96.75 294.327 94.35L295.077 93.45H295.377C295.977 93.45 296.427 93.15 296.727 92.55C297.127 92.05 297.377 91.5 297.477 90.9C297.677 90.9 297.827 90.95 297.927 91.05C298.027 91.05 298.127 91.05 298.227 91.05C299.027 91.05 299.527 90.55 299.727 89.55C299.727 89.35 299.727 89.05 299.727 88.65C299.827 88.25 299.927 87.8 300.027 87.3C300.027 87.1 300.827 86.05 302.427 84.15C302.427 83.85 302.977 82.9 304.077 81.3L305.277 78.45C305.777 78.25 306.227 77.95 306.627 77.55C306.827 77.35 306.827 77.1 306.627 76.8C306.827 76.3 307.077 75.9 307.377 75.6C307.677 75.3 308.127 74.75 308.727 73.95V73.2L309.477 71.4L310.527 70.8C310.627 70.1 310.627 69.45 310.527 68.85C311.327 68.75 312.277 67 313.377 63.6H313.677C314.377 63.6 314.827 62.95 315.027 61.65C314.927 61.55 314.877 61.2 314.877 60.6C315.277 60.2 315.877 59.35 316.677 58.05C316.677 57.85 316.727 57.55 316.827 57.15C317.027 56.75 317.377 56.15 317.877 55.35C318.077 55.15 318.277 54.95 318.477 54.75C318.677 54.45 318.877 54.1 319.077 53.7C319.177 53.2 319.277 52.65 319.377 52.05C319.477 51.35 319.627 50.6 319.827 49.8C320.027 49.6 320.277 49.35 320.577 49.05C320.877 48.65 321.177 48.2 321.477 47.7V45.75C321.577 45.65 321.777 45.1 322.077 44.1C318.777 43 316.627 42.45 315.627 42.45H315.177C315.077 42.55 314.877 42.6 314.577 42.6C314.477 42.6 314.027 42.55 313.227 42.45C312.427 42.25 311.927 42.15 311.727 42.15C311.627 42.15 311.527 42.2 311.427 42.3C311.427 42.4 311.377 42.45 311.277 42.45C311.177 42.45 311.027 42.45 310.827 42.45C310.627 42.45 310.427 42.4 310.227 42.3H309.177C309.077 42.3 308.827 42.4 308.427 42.6C308.127 42.7 307.927 42.75 307.827 42.75C305.527 42.75 304.177 42.8 303.777 42.9C303.377 42.9 302.827 42.95 302.127 43.05C301.927 43.05 301.377 43.5 300.477 44.4C296.877 44.5 293.527 45.5 290.427 47.4C289.827 47.7 289.077 48 288.177 48.3C287.277 48.6 286.827 48.85 286.827 49.05C286.827 49.05 286.777 49.05 286.677 49.05C286.677 49.05 286.677 49 286.677 48.9H286.527C286.427 48.9 286.227 49 285.927 49.2C285.727 49.4 285.177 49.75 284.277 50.25H283.077C282.877 50.75 282.427 51.05 281.727 51.15C281.027 51.15 279.527 52 277.227 53.7C276.927 53.7 276.627 53.75 276.327 53.85C276.127 54.25 275.427 54.7 274.227 55.2C273.127 55.7 272.277 56.25 271.677 56.85H270.927L270.477 57.75L268.677 58.8L267.027 59.55C266.827 59.85 266.577 60.1 266.277 60.3C265.977 60.4 265.677 60.55 265.377 60.75L263.277 62.85L261.927 64.8L260.727 65.55L260.277 66.15C258.577 66.45 256.877 67.9 255.177 70.5C254.777 70.7 254.227 70.95 253.527 71.25C252.927 71.55 252.227 71.9 251.427 72.3L249.027 75.6C249.027 75.9 248.977 76.1 248.877 76.2C248.477 76.6 248.177 76.8 247.977 76.8C247.777 76.8 247.627 76.75 247.527 76.65C247.527 76.55 247.427 76.5 247.227 76.5C246.727 76.5 246.477 76.7 246.477 77.1V78L244.377 80.1C244.177 80.4 243.877 80.75 243.477 81.15C243.177 81.45 242.777 81.85 242.277 82.35C242.077 82.55 242.077 82.75 242.277 82.95C241.977 82.85 241.827 82.75 241.827 82.65C241.627 82.85 241.177 83.2 240.477 83.7C239.777 84.2 239.027 84.85 238.227 85.65C238.127 85.95 237.927 86.3 237.627 86.7C237.327 87.1 236.977 87.55 236.577 88.05C236.577 88.15 236.577 88.25 236.577 88.35C236.677 88.35 236.727 88.45 236.727 88.65C236.727 88.95 236.577 89.4 236.277 90C235.777 90 235.027 90.45 234.027 91.35C234.027 91.65 234.127 92 234.327 92.4C233.727 92.8 233.127 93.25 232.527 93.75C231.927 94.15 231.677 94.8 231.777 95.7C231.577 95.9 231.227 96.1 230.727 96.3C230.327 96.6 229.877 96.9 229.377 97.2C229.477 97.3 229.527 97.75 229.527 98.55C228.127 99.95 227.477 100.9 227.577 101.4C227.177 101.3 226.877 101.55 226.677 102.15C226.577 102.75 226.177 103.5 225.477 104.4V105.3C224.877 105.7 224.227 106.25 223.527 106.95C223.527 107.15 223.477 107.4 223.377 107.7C223.377 108 223.327 108.4 223.227 108.9C222.327 109.3 221.927 109.85 222.027 110.55C222.127 111.35 221.577 112.6 220.377 114.3C219.977 114.6 219.527 115.05 219.027 115.65C218.827 115.85 218.677 116.55 218.577 117.75C218.577 117.85 218.377 118.25 217.977 118.95C217.977 119.35 217.677 120.15 217.077 121.35C216.977 121.75 216.977 122.95 217.077 124.95C217.077 126.05 216.627 126.9 215.727 127.5L215.277 131.4C215.277 131.9 215.527 132.55 216.027 133.35C215.827 133.95 215.727 134.6 215.727 135.3L216.177 136.05C216.277 136.25 216.327 136.55 216.327 136.95C216.327 137.35 216.377 137.8 216.477 138.3C216.577 138.4 216.677 138.55 216.777 138.75C216.877 139.05 217.177 139.65 217.677 140.55C217.777 140.65 217.877 140.8 217.977 141C218.077 141.3 218.227 141.55 218.427 141.75C219.627 144.15 220.577 145.35 221.277 145.35C221.477 145.35 221.627 145.3 221.727 145.2C221.727 145.8 222.127 146.2 222.927 146.4C223.727 146.7 224.177 147.1 224.277 147.6C224.077 147.8 223.877 147.9 223.677 147.9ZM333.477 50.55C333.477 50.55 333.427 50.55 333.327 50.55C333.427 50.45 333.477 50.45 333.477 50.55Z" fill="black"/>
</svg>
